<?xml version="1.0" encoding="UTF-8"?>
<svg xmlns="http://www.w3.org/2000/svg" viewBox="0 0 64 64" width="64" height="64">
  <!-- Sombra -->
  <ellipse cx="34" cy="56" rx="18" ry="3" fill="#000" opacity="0.15"/>
  <!-- Cuerpo cilíndrico principal -->
  <rect x="10" y="24" width="44" height="16" rx="2" fill="#95a5a6" stroke="#333" stroke-width="1.5"/>
  <!-- Tapón izquierdo -->
  <ellipse cx="10" cy="32" rx="4" ry="8" fill="#7f8c8d" stroke="#333" stroke-width="1.5"/>
  <!-- Tapón derecho -->
  <ellipse cx="54" cy="32" rx="4" ry="8" fill="#7f8c8d" stroke="#333" stroke-width="1.5"/>
  <!-- Detalle tapones -->
  <ellipse cx="10" cy="32" rx="2" ry="5" fill="#bdc3c7" stroke="#333" stroke-width="0.5"/>
  <ellipse cx="54" cy="32" rx="2" ry="5" fill="#bdc3c7" stroke="#333" stroke-width="0.5"/>
  <!-- Anilla 1 -->
  <rect x="16" y="22" width="6" height="20" rx="1" fill="#f1c40f" stroke="#d4ac0d" stroke-width="1"/>
  <line x1="19" y1="24" x2="19" y2="40" stroke="#d4ac0d" stroke-width="0.8"/>
  <!-- Símbolos anilla 1 -->
  <line x1="17" y1="28" x2="21" y2="28" stroke="#333" stroke-width="0.8"/>
  <line x1="17" y1="34" x2="21" y2="34" stroke="#333" stroke-width="0.8"/>
  <!-- Anilla 2 -->
  <rect x="24" y="22" width="6" height="20" rx="1" fill="#f1c40f" stroke="#d4ac0d" stroke-width="1"/>
  <line x1="27" y1="24" x2="27" y2="40" stroke="#d4ac0d" stroke-width="0.8"/>
  <!-- Símbolos anilla 2 -->
  <line x1="25" y1="28" x2="29" y2="28" stroke="#333" stroke-width="0.8"/>
  <line x1="25" y1="34" x2="29" y2="34" stroke="#333" stroke-width="0.8"/>
  <!-- Anilla 3 -->
  <rect x="32" y="22" width="6" height="20" rx="1" fill="#f1c40f" stroke="#d4ac0d" stroke-width="1"/>
  <line x1="35" y1="24" x2="35" y2="40" stroke="#d4ac0d" stroke-width="0.8"/>
  <!-- Símbolos anilla 3 -->
  <line x1="33" y1="28" x2="37" y2="28" stroke="#333" stroke-width="0.8"/>
  <line x1="33" y1="34" x2="37" y2="34" stroke="#333" stroke-width="0.8"/>
  <!-- Anilla 4 -->
  <rect x="40" y="22" width="6" height="20" rx="1" fill="#f1c40f" stroke="#d4ac0d" stroke-width="1"/>
  <line x1="43" y1="24" x2="43" y2="40" stroke="#d4ac0d" stroke-width="0.8"/>
  <!-- Símbolos anilla 4 -->
  <line x1="41" y1="28" x2="45" y2="28" stroke="#333" stroke-width="0.8"/>
  <line x1="41" y1="34" x2="45" y2="34" stroke="#333" stroke-width="0.8"/>
  <!-- Bisagra central -->
  <rect x="30" y="24" width="4" height="16" fill="#7f8c8d" stroke="#333" stroke-width="1"/>
</svg>
