<?xml version="1.0" encoding="UTF-8"?>
<svg xmlns="http://www.w3.org/2000/svg" viewBox="0 0 64 64" width="64" height="64">
  <!-- Sombra -->
  <ellipse cx="34" cy="58" rx="14" ry="3" fill="#000" opacity="0.15"/>
  <!-- Hoja de papel con bordes ondulados -->
  <path d="M 16 12 Q 18 10 20 12 Q 22 14 24 12 L 46 12 Q 48 10 50 12 Q 52 14 50 16 L 50 48 Q 52 50 50 52 Q 48 54 46 52 L 20 52 Q 18 54 16 52 Q 14 50 16 48 Z" fill="#fff" stroke="#333" stroke-width="1.5"/>
  <!-- Líneas de texto -->
  <line x1="22" y1="22" x2="44" y2="22" stroke="#95a5a6" stroke-width="1"/>
  <line x1="22" y1="28" x2="40" y2="28" stroke="#95a5a6" stroke-width="1"/>
  <line x1="22" y1="34" x2="42" y2="34" stroke="#95a5a6" stroke-width="1"/>
  <line x1="22" y1="40" x2="38" y2="40" stroke="#95a5a6" stroke-width="1"/>
  <!-- Sello de cera -->
  <circle cx="44" cy="46" r="5" fill="#c0392b" stroke="#333" stroke-width="1"/>
  <!-- Detalle sello (estrella/simple) -->
  <path d="M 44 43 L 45 45 L 47 45 L 45.5 46.5 L 46 48.5 L 44 47.5 L 42 48.5 L 42.5 46.5 L 41 45 L 43 45 Z" fill="#e74c3c" stroke="#922b21" stroke-width="0.5"/>
  <!-- Cordón del sello -->
  <path d="M 44 41 Q 48 38 52 40" stroke="#c0392b" stroke-width="1.5" fill="none"/>
  <path d="M 44 41 Q 40 38 36 40" stroke="#c0392b" stroke-width="1.5" fill="none"/>
  <!-- Arruga en papel -->
  <path d="M 18 18 Q 20 20 18 22" stroke="#bdc3c7" stroke-width="0.8" fill="none"/>
  <path d="M 48 44 Q 46 46 48 48" stroke="#bdc3c7" stroke-width="0.8" fill="none"/>
</svg>
