<?xml version="1.0" encoding="UTF-8"?>
<svg xmlns="http://www.w3.org/2000/svg" viewBox="0 0 64 64" width="64" height="64">
  <!-- Sombra -->
  <ellipse cx="34" cy="60" rx="18" ry="2" fill="#000" opacity="0.15"/>
  <!-- Marco exterior -->
  <rect x="8" y="4" width="48" height="56" rx="2" fill="#5d4037" stroke="#333" stroke-width="1.5"/>
  <!-- Balda 1 -->
  <rect x="10" y="16" width="44" height="4" rx="1" fill="#795548" stroke="#3e2723" stroke-width="1"/>
  <!-- Balda 2 -->
  <rect x="10" y="32" width="44" height="4" rx="1" fill="#795548" stroke="#3e2723" stroke-width="1"/>
  <!-- Balda 3 -->
  <rect x="10" y="48" width="44" height="4" rx="1" fill="#795548" stroke="#3e2723" stroke-width="1"/>
  <!-- Libros balda 1 -->
  <rect x="14" y="6" width="4" height="10" rx="1" fill="#e74c3c" stroke="#922b21" stroke-width="0.5"/>
  <rect x="20" y="5" width="5" height="11" rx="1" fill="#3498db" stroke="#2980b9" stroke-width="0.5"/>
  <rect x="28" y="7" width="3" height="9" rx="1" fill="#f1c40f" stroke="#d4ac0d" stroke-width="0.5"/>
  <rect x="34" y="6" width="4" height="10" rx="1" fill="#27ae60" stroke="#1e8449" stroke-width="0.5"/>
  <rect x="42" y="5" width="6" height="11" rx="1" fill="#8e44ad" stroke="#6c3483" stroke-width="0.5"/>
  <!-- Libros balda 2 -->
  <rect x="16" y="22" width="5" height="10" rx="1" fill="#e67e22" stroke="#d35400" stroke-width="0.5"/>
  <rect x="24" y="21" width="4" height="11" rx="1" fill="#1abc9c" stroke="#16a085" stroke-width="0.5"/>
  <rect x="32" y="23" width="3" height="9" rx="1" fill="#9b59b6" stroke="#7d3c98" stroke-width="0.5"/>
  <rect x="40" y="22" width="5" height="10" rx="1" fill="#34495e" stroke="#2c3e50" stroke-width="0.5"/>
  <!-- Libros balda 3 -->
  <rect x="14" y="38" width="4" height="10" rx="1" fill="#c0392b" stroke="#922b21" stroke-width="0.5"/>
  <rect x="22" y="37" width="5" height="11" rx="1" fill="#2980b9" stroke="#1a5276" stroke-width="0.5"/>
  <rect x="32" y="39" width="3" height="9" rx="1" fill="#f39c12" stroke="#d35400" stroke-width="0.5"/>
  <rect x="40" y="38" width="6" height="10" rx="1" fill="#16a085" stroke="#0e6655" stroke-width="0.5"/>
</svg>
