<?xml version="1.0" encoding="UTF-8"?>
<svg xmlns="http://www.w3.org/2000/svg" viewBox="0 0 64 64" width="64" height="64">
  <!-- Sombra -->
  <ellipse cx="34" cy="60" rx="18" ry="2" fill="#000" opacity="0.15"/>
  <!-- Base ladrillo -->
  <rect x="8" y="44" width="48" height="12" rx="2" fill="#8d6e63" stroke="#333" stroke-width="1.5"/>
  <!-- Líneas de ladrillo -->
  <line x1="16" y1="44" x2="16" y2="56" stroke="#5d4037" stroke-width="0.5"/>
  <line x1="24" y1="44" x2="24" y2="56" stroke="#5d4037" stroke-width="0.5"/>
  <line x1="32" y1="44" x2="32" y2="56" stroke="#5d4037" stroke-width="0.5"/>
  <line x1="40" y1="44" x2="40" y2="56" stroke="#5d4037" stroke-width="0.5"/>
  <line x1="48" y1="44" x2="48" y2="56" stroke="#5d4037" stroke-width="0.5"/>
  <line x1="8" y1="48" x2="56" y2="48" stroke="#5d4037" stroke-width="0.5"/>
  <line x1="8" y1="52" x2="56" y2="52" stroke="#5d4037" stroke-width="0.5"/>
  <!-- Arco interior -->
  <path d="M 16 44 L 16 32 Q 32 16 48 32 L 48 44 Z" fill="#2c3e50" stroke="#333" stroke-width="1.5"/>
  <!-- Interior hueco -->
  <path d="M 20 44 L 20 34 Q 32 22 44 34 L 44 44 Z" fill="#1a1a1a" stroke="#333" stroke-width="1"/>
  <!-- Fuego -->
  <path d="M 26 44 Q 28 36 32 30 Q 36 36 38 44 Z" fill="#e74c3c" stroke="#c0392b" stroke-width="1"/>
  <path d="M 28 44 Q 30 38 32 34 Q 34 38 36 44 Z" fill="#f39c12" stroke="#e67e22" stroke-width="0.5"/>
  <path d="M 30 44 Q 31 40 32 38 Q 33 40 34 44 Z" fill="#f1c40f" stroke="#f39c12" stroke-width="0.5"/>
  <!-- Repisa superior -->
  <rect x="6" y="38" width="52" height="6" rx="1" fill="#8d6e63" stroke="#333" stroke-width="1"/>
  <!-- Detalle repisa -->
  <rect x="8" y="40" width="48" height="2" fill="#a1887f" stroke="#5d4037" stroke-width="0.5"/>
  <!-- Objeto en repisa -->
  <rect x="28" y="30" width="8" height="8" rx="1" fill="#f1c40f" stroke="#d4ac0d" stroke-width="1"/>
  <circle cx="32" cy="34" r="2" fill="#e74c3c" stroke="#333" stroke-width="0.5"/>
</svg>
