<?xml version="1.0" encoding="UTF-8"?>
<svg xmlns="http://www.w3.org/2000/svg" viewBox="0 0 64 64" width="64" height="64">
  <!-- Sombra -->
  <ellipse cx="34" cy="62" rx="14" ry="2" fill="#000" opacity="0.15"/>
  <!-- Base pesada -->
  <ellipse cx="32" cy="58" rx="14" ry="4" fill="#7f8c8d" stroke="#333" stroke-width="1.5"/>
  <!-- Detalle base -->
  <ellipse cx="32" cy="58" rx="10" ry="2" fill="#95a5a6" stroke="#7f8c8d" stroke-width="0.5"/>
  <!-- Poste principal -->
  <rect x="30" y="20" width="4" height="38" rx="1" fill="#95a5a6" stroke="#333" stroke-width="1"/>
  <!-- Curva del poste -->
  <path d="M 32 20 Q 32 10 44 14" stroke="#95a5a6" stroke-width="4" fill="none" stroke-linecap="round"/>
  <path d="M 32 20 Q 32 10 44 14" stroke="#333" stroke-width="1" fill="none"/>
  <!-- Pantalla -->
  <path d="M 38 6 L 46 16 L 54 16 L 50 6 Z" fill="#f5deb3" stroke="#d4a373" stroke-width="1.5"/>
  <!-- Interior pantalla -->
  <path d="M 40 8 L 45 14 L 51 14 L 48 8 Z" fill="#fff" stroke="#d4a373" stroke-width="0.5"/>
  <!-- Brillo -->
  <path d="M 42 10 L 44 12 L 46 12 L 44 10 Z" fill="#fff" opacity="0.6"/>
  <!-- Cable base -->
  <path d="M 46 58 Q 52 56 54 52" stroke="#333" stroke-width="1" fill="none"/>
</svg>
