<?xml version="1.0" encoding="UTF-8"?>
<svg xmlns="http://www.w3.org/2000/svg" viewBox="0 0 400 300" width="400" height="300">
  <!-- Suelo de ladrillos (resto) -->
  <rect x="0" y="0" width="280" height="210" fill="#8d6e63"/>
  <g stroke="#5d4037" stroke-width="2" fill="#a1887f">
    <rect x="0" y="0" width="60" height="30" fill="#a1887f" stroke="#5d4037"/>
    <rect x="60" y="0" width="60" height="30" fill="#8d6e63" stroke="#5d4037"/>
    <rect x="120" y="0" width="60" height="30" fill="#a1887f" stroke="#5d4037"/>
    <rect x="180" y="0" width="60" height="30" fill="#8d6e63" stroke="#5d4037"/>
    <rect x="240" y="0" width="40" height="30" fill="#a1887f" stroke="#5d4037"/>
    <rect x="-30" y="30" width="60" height="30" fill="#8d6e63" stroke="#5d4037"/>
    <rect x="30" y="30" width="60" height="30" fill="#a1887f" stroke="#5d4037"/>
    <rect x="90" y="30" width="60" height="30" fill="#8d6e63" stroke="#5d4037"/>
    <rect x="150" y="30" width="60" height="30" fill="#a1887f" stroke="#5d4037"/>
    <rect x="210" y="30" width="60" height="30" fill="#8d6e63" stroke="#5d4037"/>
    <rect x="270" y="30" width="60" height="30" fill="#a1887f" stroke="#5d4037"/>
    <rect x="330" y="30" width="10" height="30" fill="#8d6e63" stroke="#5d4037"/>
    <rect x="0" y="60" width="60" height="30" fill="#a1887f" stroke="#5d4037"/>
    <rect x="60" y="60" width="60" height="30" fill="#8d6e63" stroke="#5d4037"/>
    <rect x="120" y="60" width="60" height="30" fill="#a1887f" stroke="#5d4037"/>
    <rect x="180" y="60" width="60" height="30" fill="#8d6e63" stroke="#5d4037"/>
    <rect x="240" y="60" width="40" height="30" fill="#a1887f" stroke="#5d4037"/>
    <rect x="-30" y="90" width="60" height="30" fill="#8d6e63" stroke="#5d4037"/>
    <rect x="30" y="90" width="60" height="30" fill="#a1887f" stroke="#5d4037"/>
    <rect x="90" y="90" width="60" height="30" fill="#8d6e63" stroke="#5d4037"/>
    <rect x="150" y="90" width="60" height="30" fill="#a1887f" stroke="#5d4037"/>
    <rect x="210" y="90" width="60" height="30" fill="#8d6e63" stroke="#5d4037"/>
    <rect x="270" y="90" width="60" height="30" fill="#a1887f" stroke="#5d4037"/>
    <rect x="330" y="90" width="10" height="30" fill="#8d6e63" stroke="#5d4037"/>
    <rect x="0" y="120" width="60" height="30" fill="#a1887f" stroke="#5d4037"/>
    <rect x="60" y="120" width="60" height="30" fill="#8d6e63" stroke="#5d4037"/>
    <rect x="120" y="120" width="60" height="30" fill="#a1887f" stroke="#5d4037"/>
    <rect x="180" y="120" width="60" height="30" fill="#8d6e63" stroke="#5d4037"/>
    <rect x="240" y="120" width="40" height="30" fill="#a1887f" stroke="#5d4037"/>
    <rect x="-30" y="150" width="60" height="30" fill="#8d6e63" stroke="#5d4037"/>
    <rect x="30" y="150" width="60" height="30" fill="#a1887f" stroke="#5d4037"/>
    <rect x="90" y="150" width="60" height="30" fill="#8d6e63" stroke="#5d4037"/>
    <rect x="150" y="150" width="60" height="30" fill="#a1887f" stroke="#5d4037"/>
    <rect x="210" y="150" width="60" height="30" fill="#8d6e63" stroke="#5d4037"/>
    <rect x="270" y="150" width="60" height="30" fill="#a1887f" stroke="#5d4037"/>
    <rect x="330" y="150" width="10" height="30" fill="#8d6e63" stroke="#5d4037"/>
    <rect x="0" y="180" width="60" height="30" fill="#a1887f" stroke="#5d4037"/>
    <rect x="60" y="180" width="60" height="30" fill="#8d6e63" stroke="#5d4037"/>
    <rect x="120" y="180" width="60" height="30" fill="#a1887f" stroke="#5d4037"/>
    <rect x="180" y="180" width="60" height="30" fill="#8d6e63" stroke="#5d4037"/>
    <rect x="240" y="180" width="40" height="30" fill="#a1887f" stroke="#5d4037"/>
  </g>

  <!-- Pared vertical derecha (120x300) -->
  <rect x="280" y="0" width="120" height="300" fill="#8d6e63"/>
  <g stroke="#5d4037" stroke-width="2">
    <rect x="280" y="0" width="60" height="30" fill="#a1887f" stroke="#5d4037"/>
    <rect x="340" y="0" width="60" height="30" fill="#8d6e63" stroke="#5d4037"/>
    <rect x="280" y="30" width="60" height="30" fill="#8d6e63" stroke="#5d4037"/>
    <rect x="340" y="30" width="60" height="30" fill="#a1887f" stroke="#5d4037"/>
    <rect x="280" y="60" width="60" height="30" fill="#a1887f" stroke="#5d4037"/>
    <rect x="340" y="60" width="60" height="30" fill="#8d6e63" stroke="#5d4037"/>
    <rect x="280" y="90" width="60" height="30" fill="#8d6e63" stroke="#5d4037"/>
    <rect x="340" y="90" width="60" height="30" fill="#a1887f" stroke="#5d4037"/>
    <rect x="280" y="120" width="60" height="30" fill="#a1887f" stroke="#5d4037"/>
    <rect x="340" y="120" width="60" height="30" fill="#8d6e63" stroke="#5d4037"/>
    <rect x="280" y="150" width="60" height="30" fill="#8d6e63" stroke="#5d4037"/>
    <rect x="340" y="150" width="60" height="30" fill="#a1887f" stroke="#5d4037"/>
    <rect x="280" y="180" width="60" height="30" fill="#a1887f" stroke="#5d4037"/>
    <rect x="340" y="180" width="60" height="30" fill="#8d6e63" stroke="#5d4037"/>
    <rect x="280" y="210" width="60" height="30" fill="#8d6e63" stroke="#5d4037"/>
    <rect x="340" y="210" width="60" height="30" fill="#a1887f" stroke="#5d4037"/>
    <rect x="280" y="240" width="60" height="30" fill="#a1887f" stroke="#5d4037"/>
    <rect x="340" y="240" width="60" height="30" fill="#8d6e63" stroke="#5d4037"/>
    <rect x="280" y="270" width="60" height="30" fill="#8d6e63" stroke="#5d4037"/>
    <rect x="340" y="270" width="60" height="30" fill="#a1887f" stroke="#5d4037"/>
  </g>

  <!-- Pared horizontal abajo (400x90) -->
  <rect x="0" y="210" width="400" height="90" fill="#8d6e63"/>
  <g stroke="#5d4037" stroke-width="2">
    <rect x="0" y="210" width="60" height="30" fill="#a1887f" stroke="#5d4037"/>
    <rect x="60" y="210" width="60" height="30" fill="#8d6e63" stroke="#5d4037"/>
    <rect x="120" y="210" width="60" height="30" fill="#a1887f" stroke="#5d4037"/>
    <rect x="180" y="210" width="60" height="30" fill="#8d6e63" stroke="#5d4037"/>
    <rect x="240" y="210" width="60" height="30" fill="#a1887f" stroke="#5d4037"/>
    <rect x="300" y="210" width="60" height="30" fill="#8d6e63" stroke="#5d4037"/>
    <rect x="360" y="210" width="40" height="30" fill="#a1887f" stroke="#5d4037"/>
    <rect x="-30" y="240" width="60" height="30" fill="#8d6e63" stroke="#5d4037"/>
    <rect x="30" y="240" width="60" height="30" fill="#a1887f" stroke="#5d4037"/>
    <rect x="90" y="240" width="60" height="30" fill="#8d6e63" stroke="#5d4037"/>
    <rect x="150" y="240" width="60" height="30" fill="#a1887f" stroke="#5d4037"/>
    <rect x="210" y="240" width="60" height="30" fill="#8d6e63" stroke="#5d4037"/>
    <rect x="270" y="240" width="60" height="30" fill="#a1887f" stroke="#5d4037"/>
    <rect x="330" y="240" width="60" height="30" fill="#8d6e63" stroke="#5d4037"/>
    <rect x="390" y="240" width="10" height="30" fill="#a1887f" stroke="#5d4037"/>
    <rect x="0" y="270" width="60" height="30" fill="#a1887f" stroke="#5d4037"/>
    <rect x="60" y="270" width="60" height="30" fill="#8d6e63" stroke="#5d4037"/>
    <rect x="120" y="270" width="60" height="30" fill="#a1887f" stroke="#5d4037"/>
    <rect x="180" y="270" width="60" height="30" fill="#8d6e63" stroke="#5d4037"/>
    <rect x="240" y="270" width="60" height="30" fill="#a1887f" stroke="#5d4037"/>
    <rect x="300" y="270" width="60" height="30" fill="#8d6e63" stroke="#5d4037"/>
    <rect x="360" y="270" width="40" height="30" fill="#a1887f" stroke="#5d4037"/>
  </g>

  <!-- Líneas divisorias -->
  <line x1="280" y1="0" x2="280" y2="210" stroke="#333" stroke-width="3"/>
  <line x1="0" y1="210" x2="400" y2="210" stroke="#333" stroke-width="3"/>
</svg>
