<?xml version="1.0" encoding="UTF-8"?>
<svg xmlns="http://www.w3.org/2000/svg" viewBox="0 0 400 300" width="400" height="300">
  <!-- Fondo base piedra -->
  <rect x="0" y="0" width="400" height="300" fill="#7f8c8d"/>
  <!-- Losetas irregulares -->
  <g stroke="#555" stroke-width="2">
    <polygon points="10,10 80,15 90,70 20,75" fill="#95a5a6" stroke="#555"/>
    <polygon points="90,15 180,10 190,60 100,70" fill="#7f8c8d" stroke="#555"/>
    <polygon points="180,10 280,20 290,80 190,60" fill="#95a5a6" stroke="#555"/>
    <polygon points="280,20 390,15 395,75 290,80" fill="#7f8c8d" stroke="#555"/>
    <polygon points="20,75 90,70 100,140 30,150" fill="#7f8c8d" stroke="#555"/>
    <polygon points="100,70 190,60 200,130 110,140" fill="#95a5a6" stroke="#555"/>
    <polygon points="190,60 290,80 300,140 200,130" fill="#7f8c8d" stroke="#555"/>
    <polygon points="290,80 395,75 390,140 300,140" fill="#95a5a6" stroke="#555"/>
    <polygon points="30,150 100,140 110,220 40,230" fill="#95a5a6" stroke="#555"/>
    <polygon points="110,140 200,130 210,210 120,220" fill="#7f8c8d" stroke="#555"/>
    <polygon points="200,130 300,140 310,200 210,210" fill="#95a5a6" stroke="#555"/>
    <polygon points="300,140 390,140 385,200 310,200" fill="#7f8c8d" stroke="#555"/>
    <polygon points="40,230 110,220 120,290 50,295" fill="#7f8c8d" stroke="#555"/>
    <polygon points="120,220 210,210 220,280 130,290" fill="#95a5a6" stroke="#555"/>
    <polygon points="210,210 310,200 320,270 220,280" fill="#7f8c8d" stroke="#555"/>
    <polygon points="310,200 385,200 390,270 320,270" fill="#95a5a6" stroke="#555"/>
    <polygon points="50,295 130,290 140,300 60,300" fill="#95a5a6" stroke="#555"/>
    <polygon points="130,290 220,280 230,300 150,300" fill="#7f8c8d" stroke="#555"/>
    <polygon points="220,280 320,270 330,300 240,300" fill="#95a5a6" stroke="#555"/>
    <polygon points="320,270 390,270 400,300 340,300" fill="#7f8c8d" stroke="#555"/>
  </g>
  <!-- Grietas -->
  <g stroke="#444" stroke-width="1" fill="none" opacity="0.5">
    <path d="M 50 50 L 55 60 L 52 70"/>
    <path d="M 150 100 L 155 110 L 152 120"/>
    <path d="M 250 40 L 255 50 L 252 60"/>
    <path d="M 350 100 L 355 110 L 352 120"/>
    <path d="M 80 180 L 85 190 L 82 200"/>
    <path d="M 180 170 L 185 180 L 182 190"/>
    <path d="M 280 160 L 285 170 L 282 180"/>
    <path d="M 120 250 L 125 260 L 122 270"/>
    <path d="M 220 240 L 225 250 L 222 260"/>
  </g>
  <!-- Musgo en esquinas -->
  <g fill="#27ae60" opacity="0.3">
    <ellipse cx="15" cy="15" rx="12" ry="8"/>
    <ellipse cx="385" cy="15" rx="10" ry="7"/>
    <ellipse cx="15" cy="285" rx="11" ry="8"/>
    <ellipse cx="385" cy="285" rx="12" ry="7"/>
  </g>
</svg>
