<?xml version="1.0" encoding="UTF-8"?>
<svg xmlns="http://www.w3.org/2000/svg" viewBox="0 0 400 300" width="400" height="300">
  <!-- Fondo base madera oscuro -->
  <rect x="0" y="0" width="400" height="300" fill="#5d4037"/>
  <!-- Tablones horizontales -->
  <g stroke="#3e2723" stroke-width="2">
    <rect x="0" y="0" width="400" height="40" fill="#795548" stroke="#3e2723"/>
    <rect x="0" y="40" width="400" height="40" fill="#8d6e63" stroke="#3e2723"/>
    <rect x="0" y="80" width="400" height="40" fill="#795548" stroke="#3e2723"/>
    <rect x="0" y="120" width="400" height="40" fill="#8d6e63" stroke="#3e2723"/>
    <rect x="0" y="160" width="400" height="40" fill="#795548" stroke="#3e2723"/>
    <rect x="0" y="200" width="400" height="40" fill="#8d6e63" stroke="#3e2723"/>
    <rect x="0" y="240" width="400" height="40" fill="#795548" stroke="#3e2723"/>
    <rect x="0" y="280" width="400" height="20" fill="#8d6e63" stroke="#3e2723"/>
  </g>
  <!-- Nudos de madera -->
  <g fill="#3e2723" opacity="0.6">
    <ellipse cx="80" cy="20" rx="8" ry="5"/>
    <ellipse cx="250" cy="60" rx="10" ry="6"/>
    <ellipse cx="150" cy="100" rx="7" ry="4"/>
    <ellipse cx="320" cy="140" rx="9" ry="5"/>
    <ellipse cx="60" cy="180" rx="8" ry="5"/>
    <ellipse cx="200" cy="220" rx="10" ry="6"/>
    <ellipse cx="350" cy="260" rx="7" ry="4"/>
  </g>
  <!-- Grietas -->
  <g stroke="#3e2723" stroke-width="1" fill="none" opacity="0.4">
    <path d="M 120 15 L 125 25 L 122 35"/>
    <path d="M 280 55 L 285 65 L 282 75"/>
    <path d="M 40 105 L 45 115 L 42 125"/>
    <path d="M 180 155 L 185 165 L 182 175"/>
    <path d="M 300 205 L 305 215 L 302 225"/>
    <path d="M 100 255 L 105 265 L 102 275"/>
  </g>
  <!-- Clavos -->
  <g fill="#7f8c8d" stroke="#555" stroke-width="0.5">
    <circle cx="10" cy="20" r="1.5"/>
    <circle cx="390" cy="20" r="1.5"/>
    <circle cx="10" cy="60" r="1.5"/>
    <circle cx="390" cy="60" r="1.5"/>
    <circle cx="10" cy="100" r="1.5"/>
    <circle cx="390" cy="100" r="1.5"/>
    <circle cx="10" cy="140" r="1.5"/>
    <circle cx="390" cy="140" r="1.5"/>
    <circle cx="10" cy="180" r="1.5"/>
    <circle cx="390" cy="180" r="1.5"/>
    <circle cx="10" cy="220" r="1.5"/>
    <circle cx="390" cy="220" r="1.5"/>
    <circle cx="10" cy="260" r="1.5"/>
    <circle cx="390" cy="260" r="1.5"/>
  </g>
</svg>
