<?xml version="1.0" encoding="UTF-8"?>
<svg xmlns="http://www.w3.org/2000/svg" viewBox="0 0 64 64" width="64" height="64">
<ellipse cx="32" cy="38" rx="14" ry="11" fill="#f5f5f5" stroke="#333" stroke-width="1.5"/><ellipse cx="32" cy="22" rx="10" ry="9" fill="#f5f5f5" stroke="#333" stroke-width="1.5"/><path d="M 22 14 L 18 4 L 28 12" fill="#f5f5f5" stroke="#333" stroke-width="1.5"/><path d="M 42 14 L 46 4 L 36 12" fill="#f5f5f5" stroke="#333" stroke-width="1.5"/><path d="M 32 4 Q 36 2 40 8 Q 36 6 32 4" fill="#e0e0e0" stroke="#333" stroke-width="1"/><circle cx="28" cy="20" r="2.5" fill="#333"/><circle cx="36" cy="20" r="2.5" fill="#333"/><ellipse cx="32" cy="27" rx="4.5" ry="3" fill="#d7ccc8"/><path d="M 30 28 Q 32 31 34 28" stroke="#333" stroke-width="1" fill="none"/><path d="M 18 44 Q 12 52 14 60" stroke="#333" stroke-width="2" fill="none"/><path d="M 46 44 Q 52 52 50 60" stroke="#333" stroke-width="2" fill="none"/><path d="M 28 49 Q 24 58 22 60" stroke="#333" stroke-width="2" fill="none"/><path d="M 36 49 Q 40 58 42 60" stroke="#333" stroke-width="2" fill="none"/></svg>
