<?xml version="1.0" encoding="UTF-8"?>
<svg xmlns="http://www.w3.org/2000/svg" viewBox="0 0 64 64" width="64" height="64">
<ellipse cx="32" cy="40" rx="12" ry="9" fill="#d7ccc8" stroke="#333" stroke-width="1.5"/><ellipse cx="32" cy="24" rx="9" ry="8" fill="#d7ccc8" stroke="#333" stroke-width="1.5"/><path d="M 23 16 L 20 6 L 29 14" fill="#d7ccc8" stroke="#333" stroke-width="1.5"/><path d="M 41 16 L 44 6 L 35 14" fill="#d7ccc8" stroke="#333" stroke-width="1.5"/><circle cx="28" cy="22" r="2" fill="#333"/><circle cx="36" cy="22" r="2" fill="#333"/><ellipse cx="32" cy="28" rx="3.5" ry="2.5" fill="#e74c3c"/><path d="M 30 29 Q 32 31 34 29" stroke="#333" stroke-width="1" fill="none"/><path d="M 18 44 Q 12 52 14 58" stroke="#333" stroke-width="2" fill="none"/><path d="M 46 44 Q 52 52 50 58" stroke="#333" stroke-width="2" fill="none"/><path d="M 29 49 Q 25 57 23 59" stroke="#333" stroke-width="2" fill="none"/><path d="M 35 49 Q 39 57 41 59" stroke="#333" stroke-width="2" fill="none"/></svg>
