<?xml version="1.0" encoding="UTF-8"?>
<svg xmlns="http://www.w3.org/2000/svg" viewBox="0 0 64 64" width="64" height="64">
<ellipse cx="32" cy="40" rx="13" ry="10" fill="#d7ccc8" stroke="#333" stroke-width="1.5"/><ellipse cx="32" cy="24" rx="10" ry="9" fill="#d7ccc8" stroke="#333" stroke-width="1.5"/><path d="M 22 16 L 18 4 L 28 14" fill="#d7ccc8" stroke="#333" stroke-width="1.5"/><path d="M 42 16 L 46 4 L 36 14" fill="#d7ccc8" stroke="#333" stroke-width="1.5"/><circle cx="28" cy="22" r="2.5" fill="#333"/><circle cx="36" cy="22" r="2.5" fill="#333"/><ellipse cx="32" cy="29" rx="4.5" ry="3" fill="#111"/><path d="M 30 30 Q 32 33 34 30" stroke="#333" stroke-width="1" fill="none"/><path d="M 32 20 L 32 10" stroke="#333" stroke-width="2"/><path d="M 32 10 Q 34 8 36 10" fill="none" stroke="#333" stroke-width="1.5"/><path d="M 17 44 Q 11 52 13 60" stroke="#333" stroke-width="2" fill="none"/><path d="M 47 44 Q 53 52 51 60" stroke="#333" stroke-width="2" fill="none"/><path d="M 29 50 Q 25 58 23 60" stroke="#333" stroke-width="2" fill="none"/><path d="M 35 50 Q 39 58 41 60" stroke="#333" stroke-width="2" fill="none"/></svg>
