<?xml version="1.0" encoding="UTF-8"?>
<svg xmlns="http://www.w3.org/2000/svg" viewBox="0 0 64 64" width="64" height="64">
<ellipse cx="32" cy="40" rx="14" ry="11" fill="#e74c3c" stroke="#333" stroke-width="1.5"/><ellipse cx="32" cy="25" rx="9" ry="8" fill="#e74c3c" stroke="#333" stroke-width="1.5"/><path d="M 23 16 L 20 6 L 28 14" fill="#e74c3c" stroke="#333" stroke-width="1.5"/><path d="M 41 16 L 44 6 L 36 14" fill="#e74c3c" stroke="#333" stroke-width="1.5"/><path d="M 30 6 L 35 2 L 38 8 Z" fill="#e74c3c" stroke="#333" stroke-width="1.2"/><circle cx="29" cy="22" r="2" fill="#333"/><circle cx="35" cy="22" r="2" fill="#333"/><path d="M 30 26 L 28 32 L 36 32 L 34 26" fill="#f1c40f" stroke="#333" stroke-width="1"/><path d="M 18 44 Q 12 50 14 58" stroke="#f39c12" stroke-width="2.5" fill="none"/><path d="M 46 44 Q 52 50 50 58" stroke="#f39c12" stroke-width="2.5" fill="none"/><path d="M 30 51 Q 26 60 24 62" stroke="#f39c12" stroke-width="2.5" fill="none"/><path d="M 34 51 Q 38 60 40 62" stroke="#f39c12" stroke-width="2.5" fill="none"/></svg>
