<?xml version="1.0" encoding="UTF-8"?>
<svg xmlns="http://www.w3.org/2000/svg" viewBox="0 0 64 64" width="64" height="64">
<ellipse cx="32" cy="38" rx="14" ry="11" fill="#fff" stroke="#333" stroke-width="1.5"/><ellipse cx="32" cy="24" rx="9" ry="8" fill="#fff" stroke="#333" stroke-width="1.5"/><path d="M 23 16 L 20 8 L 28 14" fill="#e74c3c" stroke="#333" stroke-width="1.2"/><path d="M 41 16 L 44 8 L 36 14" fill="#e74c3c" stroke="#333" stroke-width="1.2"/><circle cx="29" cy="22" r="2" fill="#333"/><circle cx="35" cy="22" r="2" fill="#333"/><path d="M 30 26 L 28 30 L 36 30 L 34 26" fill="#f39c12" stroke="#333" stroke-width="1"/><path d="M 18 42 Q 12 48 14 56" stroke="#f39c12" stroke-width="2.5" fill="none"/><path d="M 46 42 Q 52 48 50 56" stroke="#f39c12" stroke-width="2.5" fill="none"/><path d="M 30 49 Q 26 58 24 60" stroke="#f39c12" stroke-width="2.5" fill="none"/><path d="M 34 49 Q 38 58 40 60" stroke="#f39c12" stroke-width="2.5" fill="none"/></svg>
