<?xml version="1.0" encoding="UTF-8"?>
<svg xmlns="http://www.w3.org/2000/svg" viewBox="0 0 64 64" width="64" height="64">
<ellipse cx="32" cy="40" rx="13" ry="10" fill="#e67e22" stroke="#333" stroke-width="1.5"/><ellipse cx="32" cy="26" rx="10" ry="9" fill="#e67e22" stroke="#333" stroke-width="1.5"/><path d="M 23 18 L 20 6 L 28 16" fill="#e67e22" stroke="#333" stroke-width="1.5"/><path d="M 41 18 L 44 6 L 36 16" fill="#e67e22" stroke="#333" stroke-width="1.5"/><path d="M 22 28 L 42 28 M 24 32 L 40 32 M 26 36 L 38 36" stroke="#5d4037" stroke-width="1.5"/><circle cx="28" cy="24" r="2.5" fill="#f1c40f"/><circle cx="36" cy="24" r="2.5" fill="#f1c40f"/><ellipse cx="32" cy="30" rx="2.5" ry="1.5" fill="#e74c3c"/><path d="M 30 31 Q 32 33 34 31" stroke="#333" stroke-width="1" fill="none"/><path d="M 19 44 Q 14 50 16 56" stroke="#333" stroke-width="2" fill="none"/><path d="M 45 44 Q 50 50 48 56" stroke="#333" stroke-width="2" fill="none"/><path d="M 30 50 Q 26 58 22 60" stroke="#333" stroke-width="2" fill="none"/><path d="M 34 50 Q 38 58 42 60" stroke="#333" stroke-width="2" fill="none"/></svg>
