<?xml version="1.0" encoding="UTF-8"?>
<svg xmlns="http://www.w3.org/2000/svg" viewBox="0 0 64 64" width="64" height="64">
<ellipse cx="32" cy="40" rx="14" ry="11" fill="#795548" stroke="#333" stroke-width="1.5"/><ellipse cx="32" cy="24" rx="10" ry="9" fill="#795548" stroke="#333" stroke-width="1.5"/><path d="M 22 16 L 18 6 L 28 14" fill="#795548" stroke="#333" stroke-width="1.5"/><path d="M 42 16 L 46 6 L 36 14" fill="#795548" stroke="#333" stroke-width="1.5"/><circle cx="28" cy="22" r="2.5" fill="#333"/><circle cx="36" cy="22" r="2.5" fill="#333"/><ellipse cx="32" cy="29" rx="4.5" ry="3" fill="#111"/><path d="M 30 30 Q 32 33 34 30" stroke="#333" stroke-width="1" fill="none"/><ellipse cx="18" cy="34" rx="2.5" ry="4" fill="#795548" stroke="#333" stroke-width="1"/><path d="M 16 44 Q 10 52 12 60" stroke="#333" stroke-width="2" fill="none"/><path d="M 48 44 Q 54 52 52 60" stroke="#333" stroke-width="2" fill="none"/><path d="M 28 51 Q 24 60 22 62" stroke="#333" stroke-width="2" fill="none"/><path d="M 36 51 Q 40 60 42 62" stroke="#333" stroke-width="2" fill="none"/></svg>
