<?xml version="1.0" encoding="UTF-8"?>
<svg xmlns="http://www.w3.org/2000/svg" viewBox="0 0 64 64" width="64" height="64">
  <!-- Cuerpo -->
  <ellipse cx="32" cy="42" rx="14" ry="10" fill="#7f8c8d" stroke="#333" stroke-width="1.5"/>
  <!-- Cabeza -->
  <ellipse cx="32" cy="26" rx="11" ry="9" fill="#95a5a6" stroke="#333" stroke-width="1.5"/>
  <!-- Orejas grandes redondas -->
  <ellipse cx="22" cy="16" rx="5" ry="6" fill="#95a5a6" stroke="#333" stroke-width="1.5"/>
  <ellipse cx="42" cy="16" rx="5" ry="6" fill="#95a5a6" stroke="#333" stroke-width="1.5"/>
  <!-- Interior orejas -->
  <ellipse cx="22" cy="16" rx="2.5" ry="3" fill="#e74c3c"/>
  <ellipse cx="42" cy="16" rx="2.5" ry="3" fill="#e74c3c"/>
  <!-- Ojos -->
  <circle cx="28" cy="24" r="2.5" fill="#e74c3c"/>
  <circle cx="36" cy="24" r="2.5" fill="#e74c3c"/>
  <circle cx="28" cy="24" r="1" fill="#111"/>
  <circle cx="36" cy="24" r="1" fill="#111"/>
  <!-- Nariz -->
  <ellipse cx="32" cy="30" rx="3" ry="2" fill="#e91e63"/>
  <!-- Bigotes -->
  <path d="M 28 30 L 20 28 M 28 31 L 20 32 M 36 30 L 44 28 M 36 31 L 44 32" stroke="#333" stroke-width="0.8"/>
  <!-- Cola larga y delgada -->
  <path d="M 46 42 Q 56 38 58 28 Q 60 18 54 14" stroke="#7f8c8d" stroke-width="2.5" fill="none"/>
  <!-- Patas -->
  <path d="M 20 48 Q 14 54 16 60" stroke="#333" stroke-width="2" fill="none"/>
  <path d="M 44 48 Q 50 54 48 60" stroke="#333" stroke-width="2" fill="none"/>
  <path d="M 28 50 Q 24 58 22 60" stroke="#333" stroke-width="2" fill="none"/>
  <path d="M 36 50 Q 40 58 42 60" stroke="#333" stroke-width="2" fill="none"/>
</svg>
