<?xml version="1.0" encoding="UTF-8"?>
<svg xmlns="http://www.w3.org/2000/svg" viewBox="0 0 64 64" width="64" height="64">
<ellipse cx="32" cy="38" rx="18" ry="13" fill="#5d4037" stroke="#333" stroke-width="1.5"/><ellipse cx="32" cy="22" rx="12" ry="10" fill="#5d4037" stroke="#333" stroke-width="1.5"/><path d="M 20 14 L 16 4 L 26 12" fill="#5d4037" stroke="#333" stroke-width="1.5"/><path d="M 44 14 L 48 4 L 38 12" fill="#5d4037" stroke="#333" stroke-width="1.5"/><circle cx="27" cy="20" r="2.5" fill="#e74c3c"/><circle cx="37" cy="20" r="2.5" fill="#e74c3c"/><ellipse cx="32" cy="28" rx="5" ry="3.5" fill="#111"/><path d="M 30 29 Q 32 32 34 29" stroke="#e74c3c" stroke-width="1.2" fill="none"/><path d="M 14 44 Q 8 52 10 60" stroke="#333" stroke-width="2.5" fill="none"/><path d="M 50 44 Q 56 52 54 60" stroke="#333" stroke-width="2.5" fill="none"/><path d="M 28 51 Q 24 60 22 62" stroke="#333" stroke-width="2.5" fill="none"/><path d="M 36 51 Q 40 60 42 62" stroke="#333" stroke-width="2.5" fill="none"/></svg>
