<?xml version="1.0" encoding="UTF-8"?>
<svg xmlns="http://www.w3.org/2000/svg" viewBox="0 0 64 64" width="64" height="64">
<ellipse cx="32" cy="38" rx="17" ry="12" fill="#fff" stroke="#333" stroke-width="1.5"/><ellipse cx="32" cy="22" rx="11" ry="10" fill="#fff" stroke="#333" stroke-width="1.5"/><ellipse cx="22" cy="14" rx="4" ry="7" fill="#fff" stroke="#333" stroke-width="1.5"/><ellipse cx="42" cy="14" rx="4" ry="7" fill="#fff" stroke="#333" stroke-width="1.5"/><ellipse cx="25" cy="36" rx="5" ry="6" fill="#111"/><ellipse cx="40" cy="30" rx="5" ry="5" fill="#111"/><circle cx="28" cy="20" r="2" fill="#333"/><circle cx="36" cy="20" r="2" fill="#333"/><ellipse cx="32" cy="27" rx="5" ry="3" fill="#e74c3c"/><path d="M 30 28 Q 32 30 34 28" stroke="#333" stroke-width="1" fill="none"/><path d="M 15 42 Q 10 50 12 58" stroke="#333" stroke-width="2.5" fill="none"/><path d="M 49 42 Q 54 50 52 58" stroke="#333" stroke-width="2.5" fill="none"/><path d="M 29 50 Q 25 58 23 60" stroke="#333" stroke-width="2.5" fill="none"/><path d="M 35 50 Q 39 58 41 60" stroke="#333" stroke-width="2.5" fill="none"/></svg>
