<svg xmlns="http://www.w3.org/2000/svg" viewBox="0 0 64 64" width="64" height="64">
  <!-- Shadow -->
  <ellipse cx="32" cy="58" rx="20" ry="4" fill="#111" opacity="0.2" stroke="none"/>

  <!-- Green grassy base -->
  <ellipse cx="32" cy="54" rx="24" ry="6" fill="#27ae60" stroke="#333" stroke-width="1"/>
  <ellipse cx="32" cy="52" rx="22" ry="5" fill="#2ecc71" stroke="none"/>

  <!-- Tall grass tufts -->
  <path d="M 14 50 Q 16 40 18 50" stroke="#27ae60" stroke-width="2" fill="none" stroke-linecap="round"/>
  <path d="M 16 52 Q 18 38 20 52" stroke="#2ecc71" stroke-width="2" fill="none" stroke-linecap="round"/>
  <path d="M 22 48 Q 24 36 26 48" stroke="#27ae60" stroke-width="2" fill="none" stroke-linecap="round"/>
  <path d="M 30 50 Q 32 38 34 50" stroke="#2ecc71" stroke-width="2" fill="none" stroke-linecap="round"/>
  <path d="M 38 49 Q 40 37 42 49" stroke="#27ae60" stroke-width="2" fill="none" stroke-linecap="round"/>
  <path d="M 44 51 Q 46 39 48 51" stroke="#2ecc71" stroke-width="2" fill="none" stroke-linecap="round"/>

  <!-- Flowers -->
  <circle cx="20" cy="46" r="2" fill="#e74c3c" stroke="#333" stroke-width="0.6"/>
  <circle cx="36" cy="44" r="2" fill="#f1c40f" stroke="#333" stroke-width="0.6"/>
  <circle cx="46" cy="47" r="2" fill="#9b59b6" stroke="#333" stroke-width="0.6"/>
  <circle cx="28" cy="42" r="1.5" fill="#3498db" stroke="#333" stroke-width="0.6"/>

  <!-- Flower stems -->
  <line x1="20" y1="46" x2="20" y2="50" stroke="#27ae60" stroke-width="0.8"/>
  <line x1="36" y1="44" x2="36" y2="49" stroke="#27ae60" stroke-width="0.8"/>
  <line x1="46" y1="47" x2="46" y2="51" stroke="#27ae60" stroke-width="0.8"/>
  <line x1="28" y1="42" x2="28" y2="46" stroke="#27ae60" stroke-width="0.8"/>

  <!-- Small rocks in field -->
  <ellipse cx="12" cy="54" rx="2" ry="1.5" fill="#95a5a6" stroke="#333" stroke-width="0.6"/>
  <ellipse cx="52" cy="53" rx="2.5" ry="1.5" fill="#7f8c8d" stroke="#333" stroke-width="0.6"/>
</svg>