<svg xmlns="http://www.w3.org/2000/svg" viewBox="0 0 64 64" width="64" height="64">
  <!-- Shadow -->
  <ellipse cx="32" cy="58" rx="20" ry="4" fill="#111" opacity="0.2" stroke="none"/>

  <!-- Dirt ground base -->
  <ellipse cx="32" cy="54" rx="24" ry="6" fill="#C4A484" stroke="#333" stroke-width="1"/>
  <ellipse cx="32" cy="52" rx="22" ry="5" fill="#D4A76A" stroke="none"/>

  <!-- Furrows (plow lines) -->
  <path d="M 12 50 Q 32 48 52 50" stroke="#A0845C" stroke-width="1" fill="none"/>
  <path d="M 12 52 Q 32 50 52 52" stroke="#A0845C" stroke-width="1" fill="none"/>
  <path d="M 12 54 Q 32 52 52 54" stroke="#A0845C" stroke-width="1" fill="none"/>
  <path d="M 12 56 Q 32 54 52 56" stroke="#A0845C" stroke-width="1" fill="none"/>

  <!-- Small rocks -->
  <ellipse cx="16" cy="53" rx="2.5" ry="1.8" fill="#7f8c8d" stroke="#333" stroke-width="0.8"/>
  <ellipse cx="44" cy="55" rx="3" ry="2" fill="#95a5a6" stroke="#333" stroke-width="0.8"/>
  <ellipse cx="50" cy="51" rx="2" ry="1.5" fill="#7f8c8d" stroke="#333" stroke-width="0.8"/>

  <!-- Dry grass tufts -->
  <path d="M 22 52 Q 24 44 26 52" stroke="#D4A017" stroke-width="1.5" fill="none" stroke-linecap="round"/>
  <path d="M 34 50 Q 36 42 38 50" stroke="#D4A017" stroke-width="1.5" fill="none" stroke-linecap="round"/>
  <path d="M 28 54 Q 30 46 32 54" stroke="#B7950B" stroke-width="1.2" fill="none" stroke-linecap="round"/>

  <!-- Small mound of dirt -->
  <ellipse cx="38" cy="49" rx="4" ry="2" fill="#A0845C" stroke="#333" stroke-width="0.8"/>
</svg>